<?xml version="1.0" encoding="UTF-8" standalone="no"?>
<!DOCTYPE svg PUBLIC "-//W3C//DTD SVG 1.1//EN"
 "http://www.w3.org/Graphics/SVG/1.1/DTD/svg11.dtd">
<!-- Generated by graphviz version 12.1.2 (20240928.0832)
 -->
<!-- Title: G Pages: 1 -->
<svg width="951pt" height="969pt"
 viewBox="0.00 0.00 951.11 969.38" xmlns="http://www.w3.org/2000/svg" xmlns:xlink="http://www.w3.org/1999/xlink">
<g id="graph0" class="graph" transform="scale(1 1) rotate(0) translate(4 965.38)">
<title>G</title>
<polygon fill="white" stroke="none" points="-4,4 -4,-965.38 947.11,-965.38 947.11,4 -4,4"/>
<!-- folder#owner -->
<g id="node1" class="node">
<title>folder#owner</title>
<ellipse fill="#90ee90" stroke="black" cx="443.32" cy="-118.47" rx="90.32" ry="26.87"/>
<text text-anchor="start" x="411.92" y="-125.47" font-family="Arial" font-weight="bold" font-size="10.00">folder#owner</text>
<text text-anchor="start" x="387.45" y="-115.47" font-family="Arial" font-size="10.00">SpecificTypeAndRelation</text>
<text text-anchor="start" x="427.2" y="-105.47" font-family="Arial" font-weight="bold" font-size="10.00">user</text>
<text text-anchor="start" x="448.32" y="-105.47" font-family="Arial" font-size="10.00">: 1</text>
</g>
<!-- user -->
<g id="node2" class="node">
<title>user</title>
<ellipse fill="lightgray" stroke="black" cx="443.32" cy="-19.8" rx="51.79" ry="19.8"/>
<text text-anchor="start" x="432.76" y="-21.8" font-family="Arial" font-weight="bold" font-size="10.00">user</text>
<text text-anchor="start" x="414.69" y="-11.8" font-family="Arial" font-size="10.00">SpecificType</text>
</g>
<!-- folder#owner&#45;&gt;user -->
<g id="edge1" class="edge">
<title>folder#owner&#45;&gt;user</title>
<path fill="none" stroke="black" d="M443.32,-91.31C443.32,-78.89 443.32,-63.99 443.32,-51.08"/>
<polygon fill="black" stroke="black" points="446.82,-51.44 443.32,-41.44 439.82,-51.44 446.82,-51.44"/>
<text text-anchor="start" x="451.32" y="-67.4" font-family="Arial" font-weight="bold" font-size="8.00">user</text>
<text text-anchor="start" x="468.22" y="-67.4" font-family="Arial" font-size="8.00">: 1</text>
<text text-anchor="start" x="443.32" y="-59.4" font-family="Arial" font-size="8.00">Direct Edge</text>
</g>
<!-- folder#can_view -->
<g id="node3" class="node">
<title>folder#can_view</title>
<ellipse fill="#8b0000" stroke="black" cx="90.32" cy="-737.17" rx="90.32" ry="26.87"/>
<text text-anchor="start" x="51.41" y="-744.17" font-family="Arial" font-weight="bold" font-size="10.00" fill="white">folder#can_view</text>
<text text-anchor="start" x="34.45" y="-734.17" font-family="Arial" font-size="10.00" fill="white">SpecificTypeAndRelation</text>
<text text-anchor="start" x="72.81" y="-724.17" font-family="Arial" font-weight="bold" font-size="10.00" fill="white">user</text>
<text text-anchor="start" x="93.93" y="-724.17" font-family="Arial" font-size="10.00" fill="white">: ∞</text>
</g>
<!-- union:01K4Q7TB2D9QCQ9MXG0R5ERJJ5 -->
<g id="node4" class="node">
<title>union:01K4Q7TB2D9QCQ9MXG0R5ERJJ5</title>
<polygon fill="#8b0000" stroke="black" points="141.12,-650.43 39.52,-650.43 39.52,-612.43 141.12,-612.43 141.12,-650.43"/>
<text text-anchor="start" x="76.71" y="-638.43" font-family="Arial" font-weight="bold" font-size="10.00" fill="white">union</text>
<text text-anchor="start" x="47.52" y="-628.43" font-family="Arial" font-size="10.00" fill="white">OperatorNodeType</text>
<text text-anchor="start" x="72.81" y="-618.43" font-family="Arial" font-weight="bold" font-size="10.00" fill="white">user</text>
<text text-anchor="start" x="93.93" y="-618.43" font-family="Arial" font-size="10.00" fill="white">: ∞</text>
</g>
<!-- folder#can_view&#45;&gt;union:01K4Q7TB2D9QCQ9MXG0R5ERJJ5 -->
<g id="edge2" class="edge">
<title>folder#can_view&#45;&gt;union:01K4Q7TB2D9QCQ9MXG0R5ERJJ5</title>
<path fill="none" stroke="black" d="M90.32,-709.99C90.32,-695.4 90.32,-677.19 90.32,-662.08"/>
<polygon fill="black" stroke="black" points="93.82,-662.26 90.32,-652.26 86.82,-662.26 93.82,-662.26"/>
<text text-anchor="start" x="100.32" y="-686.1" font-family="Arial" font-weight="bold" font-size="8.00">user</text>
<text text-anchor="start" x="117.22" y="-686.1" font-family="Arial" font-size="8.00">: ∞</text>
<text text-anchor="start" x="90.32" y="-678.1" font-family="Arial" font-size="8.00">Rewrite Edge</text>
</g>
<!-- folder#viewer -->
<g id="node5" class="node">
<title>folder#viewer</title>
<ellipse fill="#8b0000" stroke="black" cx="139.32" cy="-525.69" rx="90.32" ry="26.87"/>
<text text-anchor="start" x="107.08" y="-532.69" font-family="Arial" font-weight="bold" font-size="10.00" fill="white">folder#viewer</text>
<text text-anchor="start" x="83.45" y="-522.69" font-family="Arial" font-size="10.00" fill="white">SpecificTypeAndRelation</text>
<text text-anchor="start" x="121.81" y="-512.69" font-family="Arial" font-weight="bold" font-size="10.00" fill="white">user</text>
<text text-anchor="start" x="142.93" y="-512.69" font-family="Arial" font-size="10.00" fill="white">: ∞</text>
</g>
<!-- union:01K4Q7TB2D9QCQ9MXG0R5ERJJ5&#45;&gt;folder#viewer -->
<g id="edge3" class="edge">
<title>union:01K4Q7TB2D9QCQ9MXG0R5ERJJ5&#45;&gt;folder#viewer</title>
<path fill="none" stroke="black" d="M108.01,-612.04C114.29,-604.63 120.9,-595.68 125.32,-586.56 128.73,-579.52 131.33,-571.62 133.32,-563.91"/>
<polygon fill="black" stroke="black" points="136.68,-564.88 135.46,-554.36 129.85,-563.35 136.68,-564.88"/>
<text text-anchor="start" x="141.36" y="-580.36" font-family="Arial" font-weight="bold" font-size="8.00">user</text>
<text text-anchor="start" x="158.26" y="-580.36" font-family="Arial" font-size="8.00">: ∞</text>
<text text-anchor="start" x="131.35" y="-572.36" font-family="Arial" font-size="8.00">Rewrite Edge</text>
</g>
<!-- union:01K4Q7TB2D9QCQ9MXG0R5ERJJ5&#45;&gt;folder#viewer -->
<g id="edge4" class="edge">
<title>union:01K4Q7TB2D9QCQ9MXG0R5ERJJ5&#45;&gt;folder#viewer</title>
<path fill="none" stroke="black" d="M83.88,-612.01C80.69,-599.7 78.69,-583.46 84.86,-570.56 86.92,-566.25 89.64,-562.22 92.76,-558.5"/>
<polygon fill="black" stroke="black" points="95.15,-561.07 99.6,-551.46 90.13,-556.19 95.15,-561.07"/>
<text text-anchor="start" x="89.08" y="-580.36" font-family="Arial" font-weight="bold" font-size="8.00">user</text>
<text text-anchor="start" x="105.98" y="-580.36" font-family="Arial" font-size="8.00">: ∞</text>
<text text-anchor="start" x="84.86" y="-572.36" font-family="Arial" font-size="8.00">TTU Edge</text>
</g>
<!-- union:01K4Q7TB2D9QCQ9MXG105C4PWA -->
<g id="node6" class="node">
<title>union:01K4Q7TB2D9QCQ9MXG105C4PWA</title>
<polygon fill="#8b0000" stroke="black" points="206.12,-446.82 104.52,-446.82 104.52,-408.82 206.12,-408.82 206.12,-446.82"/>
<text text-anchor="start" x="141.71" y="-434.82" font-family="Arial" font-weight="bold" font-size="10.00" fill="white">union</text>
<text text-anchor="start" x="112.52" y="-424.82" font-family="Arial" font-size="10.00" fill="white">OperatorNodeType</text>
<text text-anchor="start" x="137.81" y="-414.82" font-family="Arial" font-weight="bold" font-size="10.00" fill="white">user</text>
<text text-anchor="start" x="158.93" y="-414.82" font-family="Arial" font-size="10.00" fill="white">: ∞</text>
</g>
<!-- folder#viewer&#45;&gt;union:01K4Q7TB2D9QCQ9MXG105C4PWA -->
<g id="edge5" class="edge">
<title>folder#viewer&#45;&gt;union:01K4Q7TB2D9QCQ9MXG105C4PWA</title>
<path fill="none" stroke="black" d="M143.69,-498.49C145.77,-486.01 148.27,-471.04 150.42,-458.18"/>
<polygon fill="black" stroke="black" points="153.83,-459.02 152.02,-448.58 146.92,-457.87 153.83,-459.02"/>
<text text-anchor="start" x="159.23" y="-474.62" font-family="Arial" font-weight="bold" font-size="8.00">user</text>
<text text-anchor="start" x="176.13" y="-474.62" font-family="Arial" font-size="8.00">: ∞</text>
<text text-anchor="start" x="149.22" y="-466.62" font-family="Arial" font-size="8.00">Rewrite Edge</text>
</g>
<!-- union:01K4Q7TB2D9QCQ9MXG105C4PWA&#45;&gt;folder#owner -->
<g id="edge19" class="edge">
<title>union:01K4Q7TB2D9QCQ9MXG105C4PWA&#45;&gt;folder#owner</title>
<path fill="none" stroke="black" d="M162.73,-408.33C173.46,-382.94 195.05,-336.63 222.32,-303.08 273.64,-239.93 349.29,-182.71 397.42,-149.5"/>
<polygon fill="black" stroke="black" points="399.14,-152.57 405.42,-144.04 395.19,-146.79 399.14,-152.57"/>
<text text-anchor="start" x="263.4" y="-278.88" font-family="Arial" font-weight="bold" font-size="8.00">user</text>
<text text-anchor="start" x="280.3" y="-278.88" font-family="Arial" font-size="8.00">: 1</text>
<text text-anchor="start" x="252.28" y="-270.88" font-family="Arial" font-size="8.00">Rewrite Edge</text>
</g>
<!-- union:01K4Q7TB2D9QCQ9MXG105C4PWA&#45;&gt;user -->
<g id="edge18" class="edge">
<title>union:01K4Q7TB2D9QCQ9MXG105C4PWA&#45;&gt;user</title>
<path fill="none" stroke="black" d="M149.51,-408.65C143.93,-389.53 136.32,-358.44 136.32,-330.95 136.32,-330.95 136.32,-330.95 136.32,-117.47 136.32,-66.41 292.75,-38.99 382.28,-27.47"/>
<polygon fill="black" stroke="black" points="382.66,-30.95 392.15,-26.24 381.79,-24.01 382.66,-30.95"/>
<text text-anchor="start" x="144.32" y="-226.01" font-family="Arial" font-weight="bold" font-size="8.00">user</text>
<text text-anchor="start" x="161.22" y="-226.01" font-family="Arial" font-size="8.00">: 1</text>
<text text-anchor="start" x="136.32" y="-218.01" font-family="Arial" font-size="8.00">Direct Edge</text>
</g>
<!-- folder#parent_owner -->
<g id="node12" class="node">
<title>folder#parent_owner</title>
<ellipse fill="#8b0000" stroke="black" cx="432.32" cy="-329.95" rx="90.32" ry="26.87"/>
<text text-anchor="start" x="382.86" y="-336.95" font-family="Arial" font-weight="bold" font-size="10.00" fill="white">folder#parent_owner</text>
<text text-anchor="start" x="376.45" y="-326.95" font-family="Arial" font-size="10.00" fill="white">SpecificTypeAndRelation</text>
<text text-anchor="start" x="414.81" y="-316.95" font-family="Arial" font-weight="bold" font-size="10.00" fill="white">user</text>
<text text-anchor="start" x="435.93" y="-316.95" font-family="Arial" font-size="10.00" fill="white">: ∞</text>
</g>
<!-- union:01K4Q7TB2D9QCQ9MXG105C4PWA&#45;&gt;folder#parent_owner -->
<g id="edge20" class="edge">
<title>union:01K4Q7TB2D9QCQ9MXG105C4PWA&#45;&gt;folder#parent_owner</title>
<path fill="none" stroke="black" d="M206.45,-409.12C250.77,-393.78 315.28,-371.46 364.02,-354.59"/>
<polygon fill="black" stroke="black" points="365.06,-357.93 373.36,-351.35 362.77,-351.32 365.06,-357.93"/>
<text text-anchor="start" x="312.13" y="-384.62" font-family="Arial" font-weight="bold" font-size="8.00">user</text>
<text text-anchor="start" x="329.03" y="-384.62" font-family="Arial" font-size="8.00">: ∞</text>
<text text-anchor="start" x="302.12" y="-376.62" font-family="Arial" font-size="8.00">Rewrite Edge</text>
</g>
<!-- document#parent_owner -->
<g id="node7" class="node">
<title>document#parent_owner</title>
<ellipse fill="#8b0000" stroke="black" cx="380.32" cy="-525.69" rx="95.4" ry="26.87"/>
<text text-anchor="start" x="320.86" y="-532.69" font-family="Arial" font-weight="bold" font-size="10.00" fill="white">document#parent_owner</text>
<text text-anchor="start" x="324.45" y="-522.69" font-family="Arial" font-size="10.00" fill="white">SpecificTypeAndRelation</text>
<text text-anchor="start" x="362.81" y="-512.69" font-family="Arial" font-weight="bold" font-size="10.00" fill="white">user</text>
<text text-anchor="start" x="383.93" y="-512.69" font-family="Arial" font-size="10.00" fill="white">: ∞</text>
</g>
<!-- union:01K4Q7TB2D9QCQ9MXG0PMQQFTW -->
<g id="node8" class="node">
<title>union:01K4Q7TB2D9QCQ9MXG0PMQQFTW</title>
<polygon fill="#8b0000" stroke="black" points="431.12,-446.82 329.52,-446.82 329.52,-408.82 431.12,-408.82 431.12,-446.82"/>
<text text-anchor="start" x="366.71" y="-434.82" font-family="Arial" font-weight="bold" font-size="10.00" fill="white">union</text>
<text text-anchor="start" x="337.52" y="-424.82" font-family="Arial" font-size="10.00" fill="white">OperatorNodeType</text>
<text text-anchor="start" x="362.81" y="-414.82" font-family="Arial" font-weight="bold" font-size="10.00" fill="white">user</text>
<text text-anchor="start" x="383.93" y="-414.82" font-family="Arial" font-size="10.00" fill="white">: ∞</text>
</g>
<!-- document#parent_owner&#45;&gt;union:01K4Q7TB2D9QCQ9MXG0PMQQFTW -->
<g id="edge6" class="edge">
<title>document#parent_owner&#45;&gt;union:01K4Q7TB2D9QCQ9MXG0PMQQFTW</title>
<path fill="none" stroke="black" d="M380.32,-498.49C380.32,-486.14 380.32,-471.34 380.32,-458.57"/>
<polygon fill="black" stroke="black" points="383.82,-458.6 380.32,-448.6 376.82,-458.6 383.82,-458.6"/>
<text text-anchor="start" x="390.32" y="-474.62" font-family="Arial" font-weight="bold" font-size="8.00">user</text>
<text text-anchor="start" x="407.22" y="-474.62" font-family="Arial" font-size="8.00">: ∞</text>
<text text-anchor="start" x="380.32" y="-466.62" font-family="Arial" font-size="8.00">Rewrite Edge</text>
</g>
<!-- union:01K4Q7TB2D9QCQ9MXG0PMQQFTW&#45;&gt;folder#owner -->
<g id="edge12" class="edge">
<title>union:01K4Q7TB2D9QCQ9MXG0PMQQFTW&#45;&gt;folder#owner</title>
<path fill="none" stroke="black" d="M363.55,-408.52C352.59,-395.25 339.25,-376.28 333.32,-356.82 326.36,-333.97 328.09,-326.38 333.32,-303.08 346.28,-245.33 385.69,-188.37 413.62,-153.57"/>
<polygon fill="black" stroke="black" points="416.23,-155.91 419.85,-145.96 410.81,-151.48 416.23,-155.91"/>
<text text-anchor="start" x="348.35" y="-278.88" font-family="Arial" font-weight="bold" font-size="8.00">user</text>
<text text-anchor="start" x="365.25" y="-278.88" font-family="Arial" font-size="8.00">: 2</text>
<text text-anchor="start" x="343.02" y="-270.88" font-family="Arial" font-size="8.00">TTU Edge</text>
</g>
<!-- union:01K4Q7TB2D9QCQ9MXG0PMQQFTW&#45;&gt;folder#parent_owner -->
<g id="edge13" class="edge">
<title>union:01K4Q7TB2D9QCQ9MXG0PMQQFTW&#45;&gt;folder#parent_owner</title>
<path fill="none" stroke="black" d="M390.34,-408.33C396.76,-396.51 405.28,-380.79 412.98,-366.6"/>
<polygon fill="black" stroke="black" points="415.98,-368.41 417.67,-357.95 409.83,-365.08 415.98,-368.41"/>
<text text-anchor="start" x="412.1" y="-384.62" font-family="Arial" font-weight="bold" font-size="8.00">user</text>
<text text-anchor="start" x="429" y="-384.62" font-family="Arial" font-size="8.00">: ∞</text>
<text text-anchor="start" x="407.88" y="-376.62" font-family="Arial" font-size="8.00">TTU Edge</text>
</g>
<!-- union:01K4Q7TB2D9QCQ9MXG0JSYSYGE -->
<g id="node9" class="node">
<title>union:01K4Q7TB2D9QCQ9MXG0JSYSYGE</title>
<polygon fill="#8b0000" stroke="black" points="431.12,-854.84 329.52,-854.84 329.52,-816.84 431.12,-816.84 431.12,-854.84"/>
<text text-anchor="start" x="366.71" y="-842.84" font-family="Arial" font-weight="bold" font-size="10.00" fill="white">union</text>
<text text-anchor="start" x="337.52" y="-832.84" font-family="Arial" font-size="10.00" fill="white">OperatorNodeType</text>
<text text-anchor="start" x="362.81" y="-822.84" font-family="Arial" font-weight="bold" font-size="10.00" fill="white">user</text>
<text text-anchor="start" x="383.93" y="-822.84" font-family="Arial" font-size="10.00" fill="white">: ∞</text>
</g>
<!-- union:01K4Q7TB2D9QCQ9MXG0JSYSYGE&#45;&gt;user -->
<g id="edge7" class="edge">
<title>union:01K4Q7TB2D9QCQ9MXG0JSYSYGE&#45;&gt;user</title>
<path fill="none" stroke="black" d="M431.22,-830.72C562.32,-819.43 901.32,-785.66 901.32,-738.17 901.32,-738.17 901.32,-738.17 901.32,-117.47 901.32,-37.78 632.5,-23.45 506.76,-21.11"/>
<polygon fill="black" stroke="black" points="506.98,-17.61 496.92,-20.95 506.86,-24.61 506.98,-17.61"/>
<text text-anchor="start" x="909.32" y="-429.62" font-family="Arial" font-weight="bold" font-size="8.00">user</text>
<text text-anchor="start" x="926.22" y="-429.62" font-family="Arial" font-size="8.00">: 1</text>
<text text-anchor="start" x="901.32" y="-421.62" font-family="Arial" font-size="8.00">Direct Edge</text>
</g>
<!-- union:01K4Q7TB2D9QCQ9MXG0JSYSYGE&#45;&gt;folder#viewer -->
<g id="edge9" class="edge">
<title>union:01K4Q7TB2D9QCQ9MXG0JSYSYGE&#45;&gt;folder#viewer</title>
<path fill="none" stroke="black" d="M346.86,-816.56C326.02,-803.91 299.76,-785.52 281.32,-764.04 218.53,-690.9 239.94,-648.57 183.32,-570.56 180.68,-566.93 177.75,-563.32 174.67,-559.83"/>
<polygon fill="black" stroke="black" points="177.25,-557.46 167.87,-552.52 172.12,-562.23 177.25,-557.46"/>
<text text-anchor="start" x="242.26" y="-686.1" font-family="Arial" font-weight="bold" font-size="8.00">user</text>
<text text-anchor="start" x="259.16" y="-686.1" font-family="Arial" font-size="8.00">: ∞</text>
<text text-anchor="start" x="238.04" y="-678.1" font-family="Arial" font-size="8.00">TTU Edge</text>
</g>
<!-- document#viewer -->
<g id="node10" class="node">
<title>document#viewer</title>
<ellipse fill="#8b0000" stroke="black" cx="380.32" cy="-737.17" rx="90.32" ry="26.87"/>
<text text-anchor="start" x="338.08" y="-744.17" font-family="Arial" font-weight="bold" font-size="10.00" fill="white">document#viewer</text>
<text text-anchor="start" x="324.45" y="-734.17" font-family="Arial" font-size="10.00" fill="white">SpecificTypeAndRelation</text>
<text text-anchor="start" x="362.81" y="-724.17" font-family="Arial" font-weight="bold" font-size="10.00" fill="white">user</text>
<text text-anchor="start" x="383.93" y="-724.17" font-family="Arial" font-size="10.00" fill="white">: ∞</text>
</g>
<!-- union:01K4Q7TB2D9QCQ9MXG0JSYSYGE&#45;&gt;document#viewer -->
<g id="edge8" class="edge">
<title>union:01K4Q7TB2D9QCQ9MXG0JSYSYGE&#45;&gt;document#viewer</title>
<path fill="none" stroke="black" d="M380.32,-816.65C380.32,-805.12 380.32,-789.77 380.32,-775.7"/>
<polygon fill="black" stroke="black" points="383.82,-775.81 380.32,-765.81 376.82,-775.81 383.82,-775.81"/>
<text text-anchor="start" x="390.32" y="-791.84" font-family="Arial" font-weight="bold" font-size="8.00">user</text>
<text text-anchor="start" x="407.22" y="-791.84" font-family="Arial" font-size="8.00">: ∞</text>
<text text-anchor="start" x="380.32" y="-783.84" font-family="Arial" font-size="8.00">Rewrite Edge</text>
</g>
<!-- union:01K4Q7TB2D9QCQ9MXG0QE0MZMH -->
<g id="node14" class="node">
<title>union:01K4Q7TB2D9QCQ9MXG0QE0MZMH</title>
<polygon fill="#8b0000" stroke="black" points="431.12,-650.43 329.52,-650.43 329.52,-612.43 431.12,-612.43 431.12,-650.43"/>
<text text-anchor="start" x="366.71" y="-638.43" font-family="Arial" font-weight="bold" font-size="10.00" fill="white">union</text>
<text text-anchor="start" x="337.52" y="-628.43" font-family="Arial" font-size="10.00" fill="white">OperatorNodeType</text>
<text text-anchor="start" x="362.81" y="-618.43" font-family="Arial" font-weight="bold" font-size="10.00" fill="white">user</text>
<text text-anchor="start" x="383.93" y="-618.43" font-family="Arial" font-size="10.00" fill="white">: ∞</text>
</g>
<!-- document#viewer&#45;&gt;union:01K4Q7TB2D9QCQ9MXG0QE0MZMH -->
<g id="edge14" class="edge">
<title>document#viewer&#45;&gt;union:01K4Q7TB2D9QCQ9MXG0QE0MZMH</title>
<path fill="none" stroke="black" d="M380.32,-709.99C380.32,-695.4 380.32,-677.19 380.32,-662.08"/>
<polygon fill="black" stroke="black" points="383.82,-662.26 380.32,-652.26 376.82,-662.26 383.82,-662.26"/>
<text text-anchor="start" x="390.32" y="-686.1" font-family="Arial" font-weight="bold" font-size="8.00">user</text>
<text text-anchor="start" x="407.22" y="-686.1" font-family="Arial" font-size="8.00">: ∞</text>
<text text-anchor="start" x="380.32" y="-678.1" font-family="Arial" font-size="8.00">Rewrite Edge</text>
</g>
<!-- folder#can_share -->
<g id="node11" class="node">
<title>folder#can_share</title>
<ellipse fill="#90ee90" stroke="black" cx="666.32" cy="-224.21" rx="90.32" ry="26.87"/>
<text text-anchor="start" x="624.91" y="-231.21" font-family="Arial" font-weight="bold" font-size="10.00">folder#can_share</text>
<text text-anchor="start" x="610.45" y="-221.21" font-family="Arial" font-size="10.00">SpecificTypeAndRelation</text>
<text text-anchor="start" x="650.2" y="-211.21" font-family="Arial" font-weight="bold" font-size="10.00">user</text>
<text text-anchor="start" x="671.32" y="-211.21" font-family="Arial" font-size="10.00">: 1</text>
</g>
<!-- folder#can_share&#45;&gt;folder#owner -->
<g id="edge10" class="edge">
<title>folder#can_share&#45;&gt;folder#owner</title>
<path fill="none" stroke="black" d="M628.62,-199.44C609.23,-187.75 584.96,-173.94 562.32,-163.34 546.69,-156.03 529.49,-149.08 513.13,-142.96"/>
<polygon fill="black" stroke="black" points="514.55,-139.75 503.95,-139.59 512.13,-146.32 514.55,-139.75"/>
<text text-anchor="start" x="607.69" y="-173.14" font-family="Arial" font-weight="bold" font-size="8.00">user</text>
<text text-anchor="start" x="624.59" y="-173.14" font-family="Arial" font-size="8.00">: 1</text>
<text text-anchor="start" x="591.68" y="-165.14" font-family="Arial" font-size="8.00">Computed Edge</text>
</g>
<!-- union:01K4Q7TB2D9QCQ9MXG0WVV5HG1 -->
<g id="node13" class="node">
<title>union:01K4Q7TB2D9QCQ9MXG0WVV5HG1</title>
<polygon fill="#8b0000" stroke="black" points="494.12,-243.21 392.52,-243.21 392.52,-205.21 494.12,-205.21 494.12,-243.21"/>
<text text-anchor="start" x="429.71" y="-231.21" font-family="Arial" font-weight="bold" font-size="10.00" fill="white">union</text>
<text text-anchor="start" x="400.52" y="-221.21" font-family="Arial" font-size="10.00" fill="white">OperatorNodeType</text>
<text text-anchor="start" x="425.81" y="-211.21" font-family="Arial" font-weight="bold" font-size="10.00" fill="white">user</text>
<text text-anchor="start" x="446.93" y="-211.21" font-family="Arial" font-size="10.00" fill="white">: ∞</text>
</g>
<!-- folder#parent_owner&#45;&gt;union:01K4Q7TB2D9QCQ9MXG0WVV5HG1 -->
<g id="edge11" class="edge">
<title>folder#parent_owner&#45;&gt;union:01K4Q7TB2D9QCQ9MXG0WVV5HG1</title>
<path fill="none" stroke="black" d="M445.58,-303.08C447.96,-297.3 450.07,-291.09 451.32,-285.08 453.35,-275.3 452.76,-264.5 451.22,-254.81"/>
<polygon fill="black" stroke="black" points="454.68,-254.26 449.28,-245.15 447.81,-255.64 454.68,-254.26"/>
<text text-anchor="start" x="462.62" y="-278.88" font-family="Arial" font-weight="bold" font-size="8.00">user</text>
<text text-anchor="start" x="479.52" y="-278.88" font-family="Arial" font-size="8.00">: ∞</text>
<text text-anchor="start" x="452.61" y="-270.88" font-family="Arial" font-size="8.00">Rewrite Edge</text>
</g>
<!-- union:01K4Q7TB2D9QCQ9MXG0WVV5HG1&#45;&gt;folder#owner -->
<g id="edge15" class="edge">
<title>union:01K4Q7TB2D9QCQ9MXG0WVV5HG1&#45;&gt;folder#owner</title>
<path fill="none" stroke="black" d="M443.32,-205.14C443.32,-191.87 443.32,-173.38 443.32,-156.97"/>
<polygon fill="black" stroke="black" points="446.82,-157.01 443.32,-147.01 439.82,-157.01 446.82,-157.01"/>
<text text-anchor="start" x="448.65" y="-173.14" font-family="Arial" font-weight="bold" font-size="8.00">user</text>
<text text-anchor="start" x="465.55" y="-173.14" font-family="Arial" font-size="8.00">: 2</text>
<text text-anchor="start" x="443.32" y="-165.14" font-family="Arial" font-size="8.00">TTU Edge</text>
</g>
<!-- union:01K4Q7TB2D9QCQ9MXG0WVV5HG1&#45;&gt;folder#parent_owner -->
<g id="edge16" class="edge">
<title>union:01K4Q7TB2D9QCQ9MXG0WVV5HG1&#45;&gt;folder#parent_owner</title>
<path fill="none" stroke="black" d="M425.84,-243.34C419.88,-250.73 413.95,-259.72 410.86,-269.08 408.35,-276.7 408.99,-284.83 411.21,-292.55"/>
<polygon fill="black" stroke="black" points="407.86,-293.59 414.68,-301.7 414.4,-291.11 407.86,-293.59"/>
<text text-anchor="start" x="415.08" y="-278.88" font-family="Arial" font-weight="bold" font-size="8.00">user</text>
<text text-anchor="start" x="431.98" y="-278.88" font-family="Arial" font-size="8.00">: ∞</text>
<text text-anchor="start" x="410.86" y="-270.88" font-family="Arial" font-size="8.00">TTU Edge</text>
</g>
<!-- union:01K4Q7TB2D9QCQ9MXG0QE0MZMH&#45;&gt;user -->
<g id="edge31" class="edge">
<title>union:01K4Q7TB2D9QCQ9MXG0QE0MZMH&#45;&gt;user</title>
<path fill="none" stroke="black" d="M341.98,-611.93C318.97,-598.71 291.33,-578.66 276.32,-552.56 245.69,-499.33 244.32,-339.49 244.32,-278.08 244.32,-278.08 244.32,-278.08 244.32,-117.47 244.32,-55.8 322.58,-33.46 380.95,-25.38"/>
<polygon fill="black" stroke="black" points="381.34,-28.85 390.83,-24.13 380.47,-21.91 381.34,-28.85"/>
<text text-anchor="start" x="253.51" y="-331.75" font-family="Arial" font-weight="bold" font-size="8.00">user</text>
<text text-anchor="start" x="270.41" y="-331.75" font-family="Arial" font-size="8.00">: 1</text>
<text text-anchor="start" x="245.51" y="-323.75" font-family="Arial" font-size="8.00">Direct Edge</text>
</g>
<!-- union:01K4Q7TB2D9QCQ9MXG0QE0MZMH&#45;&gt;document#parent_owner -->
<g id="edge33" class="edge">
<title>union:01K4Q7TB2D9QCQ9MXG0QE0MZMH&#45;&gt;document#parent_owner</title>
<path fill="none" stroke="black" d="M380.32,-612.36C380.32,-599.09 380.32,-580.6 380.32,-564.19"/>
<polygon fill="black" stroke="black" points="383.82,-564.23 380.32,-554.23 376.82,-564.23 383.82,-564.23"/>
<text text-anchor="start" x="390.32" y="-580.36" font-family="Arial" font-weight="bold" font-size="8.00">user</text>
<text text-anchor="start" x="407.22" y="-580.36" font-family="Arial" font-size="8.00">: ∞</text>
<text text-anchor="start" x="380.32" y="-572.36" font-family="Arial" font-size="8.00">Rewrite Edge</text>
</g>
<!-- document#owner -->
<g id="node18" class="node">
<title>document#owner</title>
<ellipse fill="#90ee90" stroke="black" cx="783.32" cy="-525.69" rx="90.32" ry="26.87"/>
<text text-anchor="start" x="741.92" y="-532.69" font-family="Arial" font-weight="bold" font-size="10.00">document#owner</text>
<text text-anchor="start" x="727.45" y="-522.69" font-family="Arial" font-size="10.00">SpecificTypeAndRelation</text>
<text text-anchor="start" x="767.2" y="-512.69" font-family="Arial" font-weight="bold" font-size="10.00">user</text>
<text text-anchor="start" x="788.32" y="-512.69" font-family="Arial" font-size="10.00">: 1</text>
</g>
<!-- union:01K4Q7TB2D9QCQ9MXG0QE0MZMH&#45;&gt;document#owner -->
<g id="edge32" class="edge">
<title>union:01K4Q7TB2D9QCQ9MXG0QE0MZMH&#45;&gt;document#owner</title>
<path fill="none" stroke="black" d="M431.58,-617.85C466.72,-609.17 514.38,-597.32 556.32,-586.56 606.36,-573.72 662.5,-558.92 706.43,-547.24"/>
<polygon fill="black" stroke="black" points="707.1,-550.69 715.86,-544.74 705.3,-543.92 707.1,-550.69"/>
<text text-anchor="start" x="623.55" y="-580.36" font-family="Arial" font-weight="bold" font-size="8.00">user</text>
<text text-anchor="start" x="640.45" y="-580.36" font-family="Arial" font-size="8.00">: 1</text>
<text text-anchor="start" x="612.43" y="-572.36" font-family="Arial" font-size="8.00">Rewrite Edge</text>
</g>
<!-- document#can_write -->
<g id="node15" class="node">
<title>document#can_write</title>
<ellipse fill="#8b0000" stroke="black" cx="601.32" cy="-737.17" rx="90.32" ry="26.87"/>
<text text-anchor="start" x="551.58" y="-744.17" font-family="Arial" font-weight="bold" font-size="10.00" fill="white">document#can_write</text>
<text text-anchor="start" x="545.45" y="-734.17" font-family="Arial" font-size="10.00" fill="white">SpecificTypeAndRelation</text>
<text text-anchor="start" x="583.81" y="-724.17" font-family="Arial" font-weight="bold" font-size="10.00" fill="white">user</text>
<text text-anchor="start" x="604.93" y="-724.17" font-family="Arial" font-size="10.00" fill="white">: ∞</text>
</g>
<!-- union:01K4Q7TB2D9QCQ9MXG0M590QDX -->
<g id="node16" class="node">
<title>union:01K4Q7TB2D9QCQ9MXG0M590QDX</title>
<polygon fill="#8b0000" stroke="black" points="652.12,-650.43 550.52,-650.43 550.52,-612.43 652.12,-612.43 652.12,-650.43"/>
<text text-anchor="start" x="587.71" y="-638.43" font-family="Arial" font-weight="bold" font-size="10.00" fill="white">union</text>
<text text-anchor="start" x="558.52" y="-628.43" font-family="Arial" font-size="10.00" fill="white">OperatorNodeType</text>
<text text-anchor="start" x="583.81" y="-618.43" font-family="Arial" font-weight="bold" font-size="10.00" fill="white">user</text>
<text text-anchor="start" x="604.93" y="-618.43" font-family="Arial" font-size="10.00" fill="white">: ∞</text>
</g>
<!-- document#can_write&#45;&gt;union:01K4Q7TB2D9QCQ9MXG0M590QDX -->
<g id="edge17" class="edge">
<title>document#can_write&#45;&gt;union:01K4Q7TB2D9QCQ9MXG0M590QDX</title>
<path fill="none" stroke="black" d="M601.32,-709.99C601.32,-695.4 601.32,-677.19 601.32,-662.08"/>
<polygon fill="black" stroke="black" points="604.82,-662.26 601.32,-652.26 597.82,-662.26 604.82,-662.26"/>
<text text-anchor="start" x="611.32" y="-686.1" font-family="Arial" font-weight="bold" font-size="8.00">user</text>
<text text-anchor="start" x="628.22" y="-686.1" font-family="Arial" font-size="8.00">: ∞</text>
<text text-anchor="start" x="601.32" y="-678.1" font-family="Arial" font-size="8.00">Rewrite Edge</text>
</g>
<!-- union:01K4Q7TB2D9QCQ9MXG0M590QDX&#45;&gt;document#parent_owner -->
<g id="edge28" class="edge">
<title>union:01K4Q7TB2D9QCQ9MXG0M590QDX&#45;&gt;document#parent_owner</title>
<path fill="none" stroke="black" d="M562.06,-612C527.79,-595.91 477.58,-572.34 438.61,-554.05"/>
<polygon fill="black" stroke="black" points="440.36,-551.01 429.82,-549.93 437.39,-557.34 440.36,-551.01"/>
<text text-anchor="start" x="514.06" y="-580.36" font-family="Arial" font-weight="bold" font-size="8.00">user</text>
<text text-anchor="start" x="530.95" y="-580.36" font-family="Arial" font-size="8.00">: ∞</text>
<text text-anchor="start" x="504.05" y="-572.36" font-family="Arial" font-size="8.00">Rewrite Edge</text>
</g>
<!-- union:01K4Q7TB2D9QCQ9MXG0M590QDX&#45;&gt;document#owner -->
<g id="edge27" class="edge">
<title>union:01K4Q7TB2D9QCQ9MXG0M590QDX&#45;&gt;document#owner</title>
<path fill="none" stroke="black" d="M633.44,-612.12C660.79,-596.53 700.57,-573.86 732.27,-555.78"/>
<polygon fill="black" stroke="black" points="733.99,-558.83 740.94,-550.84 730.52,-552.75 733.99,-558.83"/>
<text text-anchor="start" x="714.33" y="-580.36" font-family="Arial" font-weight="bold" font-size="8.00">user</text>
<text text-anchor="start" x="731.23" y="-580.36" font-family="Arial" font-size="8.00">: 1</text>
<text text-anchor="start" x="703.21" y="-572.36" font-family="Arial" font-size="8.00">Rewrite Edge</text>
</g>
<!-- document#can_share -->
<g id="node17" class="node">
<title>document#can_share</title>
<ellipse fill="#90ee90" stroke="black" cx="783.32" cy="-631.43" rx="90.32" ry="26.87"/>
<text text-anchor="start" x="731.91" y="-638.43" font-family="Arial" font-weight="bold" font-size="10.00">document#can_share</text>
<text text-anchor="start" x="727.45" y="-628.43" font-family="Arial" font-size="10.00">SpecificTypeAndRelation</text>
<text text-anchor="start" x="767.2" y="-618.43" font-family="Arial" font-weight="bold" font-size="10.00">user</text>
<text text-anchor="start" x="788.32" y="-618.43" font-family="Arial" font-size="10.00">: 1</text>
</g>
<!-- document#can_share&#45;&gt;document#owner -->
<g id="edge21" class="edge">
<title>document#can_share&#45;&gt;document#owner</title>
<path fill="none" stroke="black" d="M783.32,-604.25C783.32,-592.09 783.32,-577.4 783.32,-564.1"/>
<polygon fill="black" stroke="black" points="786.82,-564.37 783.32,-554.37 779.82,-564.37 786.82,-564.37"/>
<text text-anchor="start" x="799.33" y="-580.36" font-family="Arial" font-weight="bold" font-size="8.00">user</text>
<text text-anchor="start" x="816.23" y="-580.36" font-family="Arial" font-size="8.00">: 1</text>
<text text-anchor="start" x="783.32" y="-572.36" font-family="Arial" font-size="8.00">Computed Edge</text>
</g>
<!-- document#owner&#45;&gt;user -->
<g id="edge29" class="edge">
<title>document#owner&#45;&gt;user</title>
<path fill="none" stroke="black" d="M783.74,-498.65C784.01,-479.37 784.32,-452.45 784.32,-428.82 784.32,-428.82 784.32,-428.82 784.32,-117.47 784.32,-60.13 603.59,-35.04 505.27,-25.64"/>
<polygon fill="black" stroke="black" points="505.79,-22.17 495.51,-24.73 505.14,-29.14 505.79,-22.17"/>
<text text-anchor="start" x="792.32" y="-278.88" font-family="Arial" font-weight="bold" font-size="8.00">user</text>
<text text-anchor="start" x="809.22" y="-278.88" font-family="Arial" font-size="8.00">: 1</text>
<text text-anchor="start" x="784.32" y="-270.88" font-family="Arial" font-size="8.00">Direct Edge</text>
</g>
<!-- folder#can_write -->
<g id="node19" class="node">
<title>folder#can_write</title>
<ellipse fill="#8b0000" stroke="black" cx="584.32" cy="-525.69" rx="90.32" ry="26.87"/>
<text text-anchor="start" x="544.58" y="-532.69" font-family="Arial" font-weight="bold" font-size="10.00" fill="white">folder#can_write</text>
<text text-anchor="start" x="528.45" y="-522.69" font-family="Arial" font-size="10.00" fill="white">SpecificTypeAndRelation</text>
<text text-anchor="start" x="566.81" y="-512.69" font-family="Arial" font-weight="bold" font-size="10.00" fill="white">user</text>
<text text-anchor="start" x="587.93" y="-512.69" font-family="Arial" font-size="10.00" fill="white">: ∞</text>
</g>
<!-- union:01K4Q7TB2D9QCQ9MXG0SMBGEQ6 -->
<g id="node20" class="node">
<title>union:01K4Q7TB2D9QCQ9MXG0SMBGEQ6</title>
<polygon fill="#8b0000" stroke="black" points="601.12,-446.82 499.52,-446.82 499.52,-408.82 601.12,-408.82 601.12,-446.82"/>
<text text-anchor="start" x="536.71" y="-434.82" font-family="Arial" font-weight="bold" font-size="10.00" fill="white">union</text>
<text text-anchor="start" x="507.52" y="-424.82" font-family="Arial" font-size="10.00" fill="white">OperatorNodeType</text>
<text text-anchor="start" x="532.81" y="-414.82" font-family="Arial" font-weight="bold" font-size="10.00" fill="white">user</text>
<text text-anchor="start" x="553.93" y="-414.82" font-family="Arial" font-size="10.00" fill="white">: ∞</text>
</g>
<!-- folder#can_write&#45;&gt;union:01K4Q7TB2D9QCQ9MXG0SMBGEQ6 -->
<g id="edge22" class="edge">
<title>folder#can_write&#45;&gt;union:01K4Q7TB2D9QCQ9MXG0SMBGEQ6</title>
<path fill="none" stroke="black" d="M575.03,-498.49C570.56,-485.88 565.18,-470.73 560.59,-457.78"/>
<polygon fill="black" stroke="black" points="563.95,-456.77 557.3,-448.52 557.35,-459.11 563.95,-456.77"/>
<text text-anchor="start" x="578.34" y="-474.62" font-family="Arial" font-weight="bold" font-size="8.00">user</text>
<text text-anchor="start" x="595.24" y="-474.62" font-family="Arial" font-size="8.00">: ∞</text>
<text text-anchor="start" x="568.34" y="-466.62" font-family="Arial" font-size="8.00">Rewrite Edge</text>
</g>
<!-- union:01K4Q7TB2D9QCQ9MXG0SMBGEQ6&#45;&gt;folder#owner -->
<g id="edge24" class="edge">
<title>union:01K4Q7TB2D9QCQ9MXG0SMBGEQ6&#45;&gt;folder#owner</title>
<path fill="none" stroke="black" d="M548.97,-408.56C545.54,-368.78 534.4,-271.84 503.32,-197.34 496.7,-181.47 485.99,-166.03 475.45,-153.14"/>
<polygon fill="black" stroke="black" points="478.35,-151.15 469.2,-145.8 473.02,-155.69 478.35,-151.15"/>
<text text-anchor="start" x="541.21" y="-278.88" font-family="Arial" font-weight="bold" font-size="8.00">user</text>
<text text-anchor="start" x="558.1" y="-278.88" font-family="Arial" font-size="8.00">: 1</text>
<text text-anchor="start" x="530.09" y="-270.88" font-family="Arial" font-size="8.00">Rewrite Edge</text>
</g>
<!-- union:01K4Q7TB2D9QCQ9MXG0SMBGEQ6&#45;&gt;folder#parent_owner -->
<g id="edge25" class="edge">
<title>union:01K4Q7TB2D9QCQ9MXG0SMBGEQ6&#45;&gt;folder#parent_owner</title>
<path fill="none" stroke="black" d="M514.38,-408.35C505.51,-403.16 496.28,-397.18 488.29,-390.82 478.68,-383.16 469.18,-373.85 460.81,-364.88"/>
<polygon fill="black" stroke="black" points="463.49,-362.63 454.18,-357.57 458.3,-367.33 463.49,-362.63"/>
<text text-anchor="start" x="498.3" y="-384.62" font-family="Arial" font-weight="bold" font-size="8.00">user</text>
<text text-anchor="start" x="515.2" y="-384.62" font-family="Arial" font-size="8.00">: ∞</text>
<text text-anchor="start" x="488.29" y="-376.62" font-family="Arial" font-size="8.00">Rewrite Edge</text>
</g>
<!-- folder#parent -->
<g id="node21" class="node">
<title>folder#parent</title>
<ellipse fill="#90ee90" stroke="black" cx="579.32" cy="-934.51" rx="90.32" ry="26.87"/>
<text text-anchor="start" x="547.37" y="-941.51" font-family="Arial" font-weight="bold" font-size="10.00">folder#parent</text>
<text text-anchor="start" x="523.45" y="-931.51" font-family="Arial" font-size="10.00">SpecificTypeAndRelation</text>
<text text-anchor="start" x="559.87" y="-921.51" font-family="Arial" font-weight="bold" font-size="10.00">folder</text>
<text text-anchor="start" x="587.65" y="-921.51" font-family="Arial" font-size="10.00">: 1</text>
</g>
<!-- folder -->
<g id="node22" class="node">
<title>folder</title>
<ellipse fill="lightgray" stroke="black" cx="678.32" cy="-835.84" rx="51.79" ry="19.8"/>
<text text-anchor="start" x="664.43" y="-837.84" font-family="Arial" font-weight="bold" font-size="10.00">folder</text>
<text text-anchor="start" x="649.69" y="-827.84" font-family="Arial" font-size="10.00">SpecificType</text>
</g>
<!-- folder#parent&#45;&gt;folder -->
<g id="edge23" class="edge">
<title>folder#parent&#45;&gt;folder</title>
<path fill="none" stroke="black" d="M605.07,-908.36C619.53,-894.24 637.54,-876.65 652.08,-862.45"/>
<polygon fill="black" stroke="black" points="654.4,-865.09 659.11,-855.59 649.51,-860.08 654.4,-865.09"/>
<text text-anchor="start" x="645.94" y="-883.44" font-family="Arial" font-weight="bold" font-size="8.00">folder</text>
<text text-anchor="start" x="668.16" y="-883.44" font-family="Arial" font-size="8.00">: 1</text>
<text text-anchor="start" x="640.6" y="-875.44" font-family="Arial" font-size="8.00">Direct Edge</text>
</g>
<!-- document#can_view -->
<g id="node23" class="node">
<title>document#can_view</title>
<ellipse fill="#8b0000" stroke="black" cx="380.32" cy="-934.51" rx="90.32" ry="26.87"/>
<text text-anchor="start" x="331.41" y="-941.51" font-family="Arial" font-weight="bold" font-size="10.00" fill="white">document#can_view</text>
<text text-anchor="start" x="324.45" y="-931.51" font-family="Arial" font-size="10.00" fill="white">SpecificTypeAndRelation</text>
<text text-anchor="start" x="362.81" y="-921.51" font-family="Arial" font-weight="bold" font-size="10.00" fill="white">user</text>
<text text-anchor="start" x="383.93" y="-921.51" font-family="Arial" font-size="10.00" fill="white">: ∞</text>
</g>
<!-- document#can_view&#45;&gt;union:01K4Q7TB2D9QCQ9MXG0JSYSYGE -->
<g id="edge26" class="edge">
<title>document#can_view&#45;&gt;union:01K4Q7TB2D9QCQ9MXG0JSYSYGE</title>
<path fill="none" stroke="black" d="M380.32,-907.35C380.32,-894.67 380.32,-879.41 380.32,-866.32"/>
<polygon fill="black" stroke="black" points="383.82,-866.57 380.32,-856.57 376.82,-866.57 383.82,-866.57"/>
<text text-anchor="start" x="390.32" y="-883.44" font-family="Arial" font-weight="bold" font-size="8.00">user</text>
<text text-anchor="start" x="407.22" y="-883.44" font-family="Arial" font-size="8.00">: ∞</text>
<text text-anchor="start" x="380.32" y="-875.44" font-family="Arial" font-size="8.00">Rewrite Edge</text>
</g>
<!-- document#parent -->
<g id="node24" class="node">
<title>document#parent</title>
<ellipse fill="#90ee90" stroke="black" cx="778.32" cy="-934.51" rx="90.32" ry="26.87"/>
<text text-anchor="start" x="736.37" y="-941.51" font-family="Arial" font-weight="bold" font-size="10.00">document#parent</text>
<text text-anchor="start" x="722.45" y="-931.51" font-family="Arial" font-size="10.00">SpecificTypeAndRelation</text>
<text text-anchor="start" x="758.87" y="-921.51" font-family="Arial" font-weight="bold" font-size="10.00">folder</text>
<text text-anchor="start" x="786.65" y="-921.51" font-family="Arial" font-size="10.00">: 1</text>
</g>
<!-- document#parent&#45;&gt;folder -->
<g id="edge30" class="edge">
<title>document#parent&#45;&gt;folder</title>
<path fill="none" stroke="black" d="M752.3,-908.36C737.7,-894.24 719.51,-876.65 704.82,-862.45"/>
<polygon fill="black" stroke="black" points="707.34,-860.02 697.72,-855.59 702.47,-865.06 707.34,-860.02"/>
<text text-anchor="start" x="736.66" y="-883.44" font-family="Arial" font-weight="bold" font-size="8.00">folder</text>
<text text-anchor="start" x="758.88" y="-883.44" font-family="Arial" font-size="8.00">: 1</text>
<text text-anchor="start" x="731.32" y="-875.44" font-family="Arial" font-size="8.00">Direct Edge</text>
</g>
</g>
</svg>
